#N canvas 0 85 924 819 10;
#X obj 336 120 comport 9600;
#X msg 368 71 devices;
#X msg 126 49 open 0;
#X msg 49 49 close;
#X obj 134 649 *~;
#X msg 15 632 0;
#X msg 126 16 start;
#X msg 49 16 stop;
#X obj 135 625 osc~;
#X floatatom 520 394 5 0 0 0 - - -, f 5;
#X msg 561 284 1;
#X obj 561 391 +;
#X msg 520 347 -1;
#X floatatom 336 173 5 0 0 0 - - -, f 5;
#X obj 336 281 spigot;
#X obj 375 255 == 0, f 5;
#X obj 82 412 spigot;
#X obj 121 388 != 0;
#X obj 135 429 spigot;
#X obj 174 408 == 0;
#X floatatom 135 467 5 0 0 0 - - -, f 5;
#X obj 185 429 spigot;
#X floatatom 185 467 5 0 0 0 - - -, f 5;
#X obj 236 429 spigot;
#X floatatom 236 467 5 0 0 0 - - -, f 5;
#X obj 287 429 spigot;
#X floatatom 287 467 5 0 0 0 - - -, f 5;
#X obj 224 408 == 1;
#X obj 275 408 == 2;
#X obj 326 408 == 3;
#X msg 93 450 0;
#X obj 337 429 spigot;
#X floatatom 337 467 5 0 0 0 - - -, f 5;
#X obj 387 429 spigot;
#X floatatom 387 467 5 0 0 0 - - -, f 5;
#X obj 437 429 spigot;
#X floatatom 437 467 5 0 0 0 - - -, f 5;
#X obj 376 408 == 4;
#X obj 426 408 == 5;
#X obj 476 408 == 6;
#X obj 184 649 *~;
#X obj 185 625 osc~;
#X obj 235 649 *~;
#X obj 236 625 osc~;
#X obj 286 649 *~;
#X obj 287 625 osc~;
#X obj 336 649 *~;
#X obj 337 625 osc~;
#X obj 386 649 *~;
#X obj 387 625 osc~;
#X obj 436 649 *~;
#X obj 437 625 osc~;
#X msg 435 105 0;
#X floatatom 153 593 5 0 0 0 - - -, f 5;
#X obj 160 569 +;
#X obj 59 495 bng 15 250 50 0 empty empty empty 17 7 0 10 -262144 -1
-1;
#X obj 135 695 /~;
#X obj 183 693 /~;
#X obj 236 693 /~;
#X obj 287 693 /~;
#X obj 337 693 /~;
#X obj 387 693 /~;
#X obj 435 693 /~;
#X floatatom 201 593 5 0 0 0 - - -, f 5;
#X obj 210 569 +;
#X floatatom 251 593 5 0 0 0 - - -, f 5;
#X obj 260 569 +;
#X floatatom 305 593 5 0 0 0 - - -, f 5;
#X obj 314 569 +;
#X floatatom 355 593 5 0 0 0 - - -, f 5;
#X obj 364 569 +;
#X floatatom 405 593 5 0 0 0 - - -, f 5;
#X obj 414 569 +;
#X floatatom 453 593 5 0 0 0 - - -, f 5;
#X obj 467 569 +;
#X msg 73 116 start_synty;
#X msg 15 88 stop_synty;
#X msg 15 493 stop;
#X obj 37 532 metro 10;
#X msg 479 28 a;
#X msg 626 28 d;
#X msg 684 28 e;
#X msg 37 552 0.7;
#X msg 570 28 C;
#X msg 153 525 4;
#X msg 201 525 4;
#X msg 251 525 4;
#X msg 305 525 4;
#X msg 355 525 4;
#X msg 405 525 4;
#X msg 453 525 4;
#X msg 742 28 F;
#X msg 801 28 G;
#X obj 273 918 dac~;
#X text 721 1170 Bottom;
#X obj 282 774 +~;
#X obj 309 874 vd~ delay;
#X obj 309 834 delwrite~ delay 4000;
#X obj 500 858 sig~;
#X floatatom 500 818 5 0 0 0 - - -, f 5;
#X obj 300 798 *~;
#X floatatom 500 754 5 0 0 0 - - -, f 5;
#X msg 500 714 0;
#X msg 534 714 0.2;
#X msg 569 714 0.4;
#X msg 214 49 \; pd dsp \$1;
#X obj 214 15 tgl 15 0 empty empty empty 17 7 0 10 -262144 -1 -1 1
1;
#X obj 135 547 mtof;
#X obj 185 547 mtof;
#X obj 236 547 mtof;
#X obj 287 547 mtof;
#X obj 236 547 mtof;
#X obj 337 547 mtof;
#X obj 387 547 mtof;
#X obj 437 547 mtof;
#X msg 479 105 69;
#X msg 513 105 71;
#X msg 570 105 72;
#X msg 626 105 74;
#X msg 684 105 76;
#X msg 742 105 77;
#X msg 801 105 79;
#X msg 872 105 81;
#X obj 675 331 > 6;
#X obj 636 376 spigot;
#X msg 570 327 0;
#X msg 73 632 0.6;
#X msg 500 782 375;
#X msg 569 782 175;
#X msg 534 782 275;
#X msg 605 782 187;
#X obj 276 123 notein;
#X connect 0 0 13 0;
#X connect 1 0 0 0;
#X connect 2 0 0 0;
#X connect 3 0 0 0;
#X connect 4 0 56 0;
#X connect 5 0 4 1;
#X connect 5 0 40 1;
#X connect 5 0 42 1;
#X connect 5 0 44 1;
#X connect 5 0 46 1;
#X connect 5 0 48 1;
#X connect 5 0 50 1;
#X connect 6 0 2 0;
#X connect 6 0 75 0;
#X connect 7 0 3 0;
#X connect 7 0 76 0;
#X connect 8 0 4 0;
#X connect 9 0 11 1;
#X connect 9 0 19 0;
#X connect 9 0 27 0;
#X connect 9 0 28 0;
#X connect 9 0 29 0;
#X connect 9 0 37 0;
#X connect 9 0 38 0;
#X connect 9 0 39 0;
#X connect 9 0 123 0;
#X connect 10 0 11 0;
#X connect 10 0 124 0;
#X connect 11 0 9 0;
#X connect 12 0 9 0;
#X connect 13 0 15 0;
#X connect 13 0 14 0;
#X connect 13 0 17 0;
#X connect 13 0 16 0;
#X connect 14 0 12 0;
#X connect 14 0 30 0;
#X connect 15 0 14 1;
#X connect 16 0 10 0;
#X connect 16 0 18 0;
#X connect 16 0 21 0;
#X connect 16 0 23 0;
#X connect 16 0 25 0;
#X connect 16 0 31 0;
#X connect 16 0 33 0;
#X connect 16 0 35 0;
#X connect 17 0 16 1;
#X connect 18 0 20 0;
#X connect 19 0 18 1;
#X connect 20 0 84 0;
#X connect 20 0 107 0;
#X connect 21 0 22 0;
#X connect 22 0 85 0;
#X connect 22 0 108 0;
#X connect 23 0 24 0;
#X connect 24 0 86 0;
#X connect 24 0 109 0;
#X connect 25 0 26 0;
#X connect 26 0 87 0;
#X connect 26 0 110 0;
#X connect 27 0 21 1;
#X connect 28 0 23 1;
#X connect 29 0 25 1;
#X connect 30 0 20 0;
#X connect 30 0 22 0;
#X connect 30 0 24 0;
#X connect 30 0 26 0;
#X connect 30 0 32 0;
#X connect 30 0 34 0;
#X connect 30 0 36 0;
#X connect 31 0 32 0;
#X connect 32 0 88 0;
#X connect 32 0 112 0;
#X connect 33 0 34 0;
#X connect 34 0 89 0;
#X connect 34 0 113 0;
#X connect 35 0 36 0;
#X connect 36 0 90 0;
#X connect 36 0 114 0;
#X connect 37 0 31 1;
#X connect 38 0 33 1;
#X connect 39 0 35 1;
#X connect 40 0 57 0;
#X connect 41 0 40 0;
#X connect 42 0 58 0;
#X connect 43 0 42 0;
#X connect 44 0 59 0;
#X connect 45 0 44 0;
#X connect 46 0 60 0;
#X connect 47 0 46 0;
#X connect 48 0 61 0;
#X connect 49 0 48 0;
#X connect 50 0 62 0;
#X connect 51 0 50 0;
#X connect 52 0 13 0;
#X connect 53 0 54 1;
#X connect 53 0 56 1;
#X connect 54 0 53 0;
#X connect 55 0 78 0;
#X connect 56 0 95 0;
#X connect 57 0 95 0;
#X connect 58 0 95 0;
#X connect 59 0 95 0;
#X connect 60 0 95 0;
#X connect 61 0 95 0;
#X connect 62 0 95 0;
#X connect 63 0 64 1;
#X connect 63 0 57 1;
#X connect 64 0 63 0;
#X connect 65 0 66 1;
#X connect 65 0 58 1;
#X connect 66 0 65 0;
#X connect 67 0 68 1;
#X connect 67 0 59 1;
#X connect 68 0 67 0;
#X connect 69 0 70 1;
#X connect 69 0 60 1;
#X connect 70 0 69 0;
#X connect 71 0 72 1;
#X connect 71 0 61 1;
#X connect 72 0 71 0;
#X connect 73 0 74 1;
#X connect 73 0 62 1;
#X connect 74 0 73 0;
#X connect 75 0 55 0;
#X connect 75 0 126 0;
#X connect 76 0 77 0;
#X connect 76 0 52 0;
#X connect 77 0 5 0;
#X connect 77 0 78 0;
#X connect 78 0 82 0;
#X connect 79 0 52 0;
#X connect 79 0 115 0;
#X connect 79 0 117 0;
#X connect 79 0 119 0;
#X connect 79 0 122 0;
#X connect 80 0 52 0;
#X connect 80 0 115 0;
#X connect 80 0 118 0;
#X connect 80 0 120 0;
#X connect 80 0 122 0;
#X connect 81 0 52 0;
#X connect 81 0 116 0;
#X connect 81 0 119 0;
#X connect 81 0 121 0;
#X connect 82 0 54 0;
#X connect 82 0 64 0;
#X connect 82 0 66 0;
#X connect 82 0 68 0;
#X connect 82 0 70 0;
#X connect 82 0 72 0;
#X connect 82 0 74 0;
#X connect 83 0 52 0;
#X connect 83 0 117 0;
#X connect 83 0 119 0;
#X connect 83 0 121 0;
#X connect 84 0 53 0;
#X connect 85 0 63 0;
#X connect 86 0 65 0;
#X connect 87 0 67 0;
#X connect 88 0 69 0;
#X connect 89 0 71 0;
#X connect 90 0 73 0;
#X connect 91 0 52 0;
#X connect 91 0 115 0;
#X connect 91 0 117 0;
#X connect 91 0 120 0;
#X connect 91 0 122 0;
#X connect 92 0 52 0;
#X connect 92 0 116 0;
#X connect 92 0 118 0;
#X connect 92 0 121 0;
#X connect 95 0 93 1;
#X connect 95 0 93 0;
#X connect 95 0 100 0;
#X connect 96 0 93 0;
#X connect 96 0 93 1;
#X connect 98 0 96 0;
#X connect 99 0 98 0;
#X connect 100 0 97 0;
#X connect 101 0 100 1;
#X connect 102 0 101 0;
#X connect 103 0 101 0;
#X connect 104 0 101 0;
#X connect 106 0 105 0;
#X connect 107 0 8 0;
#X connect 108 0 41 0;
#X connect 109 0 43 0;
#X connect 110 0 45 0;
#X connect 112 0 47 0;
#X connect 113 0 49 0;
#X connect 114 0 51 0;
#X connect 115 0 13 0;
#X connect 116 0 13 0;
#X connect 117 0 13 0;
#X connect 118 0 13 0;
#X connect 119 0 13 0;
#X connect 120 0 13 0;
#X connect 121 0 13 0;
#X connect 122 0 13 0;
#X connect 123 0 124 1;
#X connect 124 0 125 0;
#X connect 125 0 9 0;
#X connect 126 0 4 1;
#X connect 126 0 40 1;
#X connect 126 0 42 1;
#X connect 126 0 44 1;
#X connect 126 0 46 1;
#X connect 126 0 48 1;
#X connect 126 0 50 1;
#X connect 127 0 99 0;
#X connect 128 0 99 0;
#X connect 129 0 99 0;
#X connect 130 0 99 0;
#X connect 131 0 13 0;
