#N canvas 0 81 716 819 10;
#X obj 255 198 comport 9600;
#X msg 208 139 devices;
#X msg 314 139 open 0;
#X msg 372 139 close;
#X obj 477 644 dac~;
#X obj 522 547 osc~;
#X obj 456 594 *~;
#X obj 523 594 *~;
#X obj 412 455 vsl 15 128 0 1 0 0 empty empty empty 0 -9 0 10 -262144
-1 -1 0 1;
#X obj 576 457 vsl 15 128 0 1 0 0 empty empty empty 0 -9 0 10 -262144
-1 -1 0 1;
#X msg 551 348 0;
#X msg 459 83 start;
#X msg 515 83 stop;
#X msg 469 345 0.8;
#X obj 457 548 osc~;
#X obj 457 504 * 1;
#X obj 522 503 * 1.6;
#X floatatom 304 246 5 0 0 0 - - -, f 5;
#X floatatom 52 269 5 0 0 0 - - -, f 5;
#X msg 93 241 1;
#X obj 93 266 +;
#X floatatom 457 461 5 0 0 0 - - -, f 5;
#X obj 63 334 spigot;
#X floatatom 63 361 5 0 0 0 - - -, f 5;
#X obj 135 332 spigot;
#X floatatom 135 359 5 0 0 0 - - -, f 5;
#X obj 135 305 == 1;
#X obj 63 306 == 0;
#X msg 53 241 -1;
#X obj 196 332 spigot;
#X floatatom 196 359 5 0 0 0 - - -, f 5;
#X obj 196 305 == 2;
#X connect 0 0 17 0;
#X connect 0 0 19 0;
#X connect 0 0 22 0;
#X connect 0 0 24 0;
#X connect 0 0 29 0;
#X connect 0 0 27 0;
#X connect 0 0 26 0;
#X connect 0 0 31 0;
#X connect 1 0 0 0;
#X connect 2 0 0 0;
#X connect 3 0 0 0;
#X connect 5 0 7 0;
#X connect 6 0 4 0;
#X connect 7 0 4 1;
#X connect 8 0 6 1;
#X connect 9 0 7 1;
#X connect 10 0 9 0;
#X connect 10 0 8 0;
#X connect 11 0 2 0;
#X connect 11 0 13 0;
#X connect 12 0 3 0;
#X connect 12 0 10 0;
#X connect 13 0 9 0;
#X connect 13 0 8 0;
#X connect 14 0 6 0;
#X connect 15 0 14 0;
#X connect 16 0 5 0;
#X connect 18 0 20 1;
#X connect 18 0 27 1;
#X connect 18 0 31 1;
#X connect 18 0 26 1;
#X connect 19 0 20 0;
#X connect 20 0 18 0;
#X connect 22 0 23 0;
#X connect 24 0 25 0;
#X connect 26 0 24 1;
#X connect 27 0 22 1;
#X connect 28 0 18 0;
#X connect 29 0 30 0;
#X connect 31 0 29 1;
